<svg width="30" height="31" viewBox="0 0 30 31" fill="none" xmlns="http://www.w3.org/2000/svg">
<path d="M27 27.5C27 29.165 25.665 30.5 24 30.5C23.2044 30.5 22.4413 30.1839 21.8787 29.6213C21.3161 29.0587 21 28.2956 21 27.5C21 25.835 22.335 24.5 24 24.5C24.7956 24.5 25.5587 24.8161 26.1213 25.3787C26.6839 25.9413 27 26.7044 27 27.5ZM9 24.5C7.335 24.5 6 25.835 6 27.5C6 28.2956 6.31607 29.0587 6.87868 29.6213C7.44129 30.1839 8.20435 30.5 9 30.5C10.665 30.5 12 29.165 12 27.5C12 25.835 10.665 24.5 9 24.5ZM9.3 19.445L9.255 19.625C9.255 19.835 9.42 20 9.63 20H27V23H9C8.20435 23 7.44129 22.6839 6.87868 22.1213C6.31607 21.5587 6 20.7956 6 20C6 19.475 6.135 18.98 6.36 18.56L8.4 14.885L3 3.5H0V0.5H4.905L6.315 3.5H28.5C29.325 3.5 30 4.175 30 5C30 5.255 29.925 5.51 29.82 5.75L24.45 15.455C23.94 16.37 22.95 17 21.825 17H10.65L9.3 19.445ZM11.25 14H13.5V11H9.84L11.25 14ZM15 11V14H19.5V11H15ZM19.5 9.5V6.5H15V9.5H19.5ZM24.165 11H21V14H22.5L24.165 11ZM26.67 6.5H21V9.5H25.005L26.67 6.5ZM7.71 6.5L9.12 9.5H13.5V6.5H7.71Z" fill="white"/>
</svg>
