<svg width="36" height="37" viewBox="0 0 36 37" fill="none" xmlns="http://www.w3.org/2000/svg">
<path d="M34.5953 29.1664L28.5774 23.1485L23.9485 21.2361C25.4897 19.0443 26.3155 16.4295 26.3125 13.75C26.3125 6.54729 20.4527 0.6875 13.25 0.6875C6.04729 0.6875 0.1875 6.54729 0.1875 13.75C0.1875 20.9527 6.04729 26.8125 13.25 26.8125C15.9528 26.8156 18.5892 25.9756 20.792 24.4095L22.6995 29.0259L28.7172 35.0442C29.1031 35.4301 29.5613 35.7363 30.0656 35.9452C30.5698 36.1541 31.1103 36.2616 31.6561 36.2616C32.2019 36.2616 32.7424 36.1542 33.2467 35.9453C33.751 35.7364 34.2092 35.4303 34.5951 35.0444C34.9811 34.6584 35.2873 34.2002 35.4961 33.696C35.705 33.1917 35.8126 32.6512 35.8126 32.1054C35.8126 31.5596 35.7051 31.0191 35.4962 30.5149C35.2874 30.0106 34.9813 29.5524 34.5953 29.1664ZM2.5625 13.75C2.5625 7.85703 7.35703 3.0625 13.25 3.0625C19.143 3.0625 23.9375 7.85703 23.9375 13.75C23.9375 19.643 19.143 24.4375 13.25 24.4375C7.35703 24.4375 2.5625 19.643 2.5625 13.75ZM32.9158 33.3648C32.5815 33.6984 32.1285 33.8857 31.6562 33.8857C31.184 33.8857 30.731 33.6984 30.3967 33.3648L24.7136 27.6818L22.9402 23.3893L27.2328 25.1627L32.916 30.8458C33.2495 31.1801 33.4368 31.6331 33.4367 32.1053C33.4367 32.5776 33.2494 33.0305 32.9158 33.3648Z" fill="white"/>
</svg>
