<svg width="34" height="33" viewBox="0 0 34 33" fill="none" xmlns="http://www.w3.org/2000/svg">
<path d="M2 27.75H0.5H2ZM9.5 20.25V18.75V20.25ZM24.5 20.25V18.75V20.25ZM3.5 27.75C3.5 26.1587 4.13214 24.6326 5.25736 23.5074L3.13604 21.386C1.44821 23.0739 0.5 25.3631 0.5 27.75H3.5ZM5.25736 23.5074C6.38258 22.3821 7.9087 21.75 9.5 21.75V18.75C7.11305 18.75 4.82387 19.6982 3.13604 21.386L5.25736 23.5074ZM9.5 21.75H24.5V18.75H9.5V21.75ZM24.5 21.75C26.0913 21.75 27.6174 22.3821 28.7426 23.5074L30.864 21.386C29.1761 19.6982 26.8869 18.75 24.5 18.75V21.75ZM28.7426 23.5074C29.8679 24.6326 30.5 26.1587 30.5 27.75H33.5C33.5 25.3631 32.5518 23.0739 30.864 21.386L28.7426 23.5074ZM30.5 27.75C30.5 28.3467 30.2629 28.919 29.841 29.341L31.9623 31.4623C32.9469 30.4777 33.5 29.1424 33.5 27.75H30.5ZM29.841 29.341C29.419 29.7629 28.8467 30 28.25 30V33C29.6424 33 30.9777 32.4469 31.9623 31.4623L29.841 29.341ZM28.25 30H5.75V33H28.25V30ZM5.75 30C5.15326 30 4.58097 29.7629 4.15901 29.341L2.03769 31.4623C3.02225 32.4469 4.35761 33 5.75 33V30ZM4.15901 29.341C3.73705 28.919 3.5 28.3467 3.5 27.75H0.5C0.5 29.1424 1.05312 30.4777 2.03769 31.4623L4.15901 29.341ZM21.125 7.125C21.125 9.40317 19.2782 11.25 17 11.25V14.25C20.935 14.25 24.125 11.06 24.125 7.125H21.125ZM17 11.25C14.7218 11.25 12.875 9.40317 12.875 7.125H9.875C9.875 11.06 13.065 14.25 17 14.25V11.25ZM12.875 7.125C12.875 4.84683 14.7218 3 17 3V0C13.065 0 9.875 3.18997 9.875 7.125H12.875ZM17 3C19.2782 3 21.125 4.84683 21.125 7.125H24.125C24.125 3.18997 20.935 0 17 0V3Z" fill="white"/>
</svg>
